# xmcd
#
# Track frame offsets: 
#        182
#        17572
#        29615
#        54750
#        66932
#        92110
#        116027
#        129900
#        146637
#        167165
#
# Disc length: 2538 seconds
#
# Revision: 2
# Processed by: cddbd v1.5.2PL0 Copyright (c) Steve Scherf et al.
# Submitted via: ExactAudioCopy v1.1
#
DISCID=8509e80a
DTITLE=The Yardbirds - Five Live Yardbirds
DYEAR=1964
DGENRE=R&B
TTITLE0=Too Much Monkey Business (live)
TTITLE1=Got Love If You Want It (live)
TTITLE2=Smokestack Lightning (live)
TTITLE3=Good Morning Little Schoolgirl (live)
TTITLE4=Respectable (live)
TTITLE5=Five Long Years (live)
TTITLE6=Pretty Girl (live)
TTITLE7=Louise (live)
TTITLE8=I'm A Man (live)
TTITLE9=Here 'Tis (live)
EXTD=
EXTT0=live
EXTT1=live
EXTT2=live
EXTT3=live
EXTT4=live
EXTT5=live
EXTT6=live
EXTT7=live
EXTT8=live
EXTT9=live
PLAYORDER=
